<?xml version="1.0" standalone="no"?>
<!DOCTYPE svg PUBLIC "-//W3C//DTD SVG 20010904//EN"
 "http://www.w3.org/TR/2001/REC-SVG-20010904/DTD/svg10.dtd">
<svg version="1.0" xmlns="http://www.w3.org/2000/svg"
 width="440.000000pt" height="440.000000pt" viewBox="0 0 440.000000 440.000000"
 preserveAspectRatio="xMidYMid meet">
<metadata>
Created by potrace 1.11, written by Peter Selinger 2001-2013
</metadata>
<g transform="translate(0.000000,440.000000) scale(0.100000,-0.100000)"
fill="#000000" stroke="none">
<path d="M830 3633 c-52 -31 -113 -65 -135 -78 -22 -12 -66 -37 -98 -56 -33
-19 -78 -45 -100 -58 -23 -13 -83 -47 -132 -76 l-91 -53 1 -376 c0 -237 4
-378 10 -384 6 -5 161 -96 345 -202 184 -106 459 -265 610 -353 151 -88 293
-170 315 -182 22 -12 114 -65 205 -117 316 -183 675 -391 695 -402 36 -20 290
-167 305 -176 25 -16 242 -141 295 -170 28 -16 132 -76 233 -134 l183 -106
327 189 327 190 0 371 c1 242 -3 377 -10 385 -9 12 -92 61 -390 232 -33 19
-76 43 -95 55 -19 11 -138 80 -265 153 -126 73 -332 191 -456 263 -124 72
-241 139 -260 151 -19 11 -45 26 -59 34 -14 7 -115 65 -225 129 -110 64 -216
125 -235 136 -19 10 -102 59 -185 107 -82 48 -166 96 -185 107 -19 11 -86 50
-149 86 -64 37 -125 72 -136 79 -11 7 -27 15 -35 20 -8 4 -55 31 -104 60 -49
29 -90 53 -92 53 -2 0 -52 28 -111 63 -102 60 -204 118 -207 117 0 -1 -44 -26
-96 -57z"/>
</g>
</svg>
